<?xml version="1.0" encoding="UTF-8"?>
<svg xmlns="http://www.w3.org/2000/svg" viewBox="0 0 200 200">
  <defs>
    <linearGradient id="goldenGradient" x1="0%" y1="0%" x2="100%" y2="100%">
      <stop offset="0%" stop-color="#f6d365"/>
      <stop offset="100%" stop-color="#f1b835"/>
    </linearGradient>
  </defs>
  <rect x="10" y="10" width="180" height="180" rx="28" ry="28" fill="#fff8e5" stroke="#c88c00" stroke-width="8" transform="rotate(45 100 100)"/>
  <g transform="translate(20 18) scale(0.9)">
    <path d="M110 32a18 18 0 1 1 0 36 17.5 17.5 0 0 1-9.6-2.8l-18.7 18.6 9.6 9.6a6 6 0 0 1 0 8.6l-9.4 9.4 8.1 8.1a6 6 0 0 1 0 8.5l-16.6 16.6a6 6 0 0 1-8.5 0L47.2 123a6 6 0 0 1 0-8.5l16.6-16.6a6 6 0 0 1 8.5 0l8.1 8.1 5.2-5.2-8.1-8.1a6 6 0 0 1 0-8.5l24.9-24.9A17.6 17.6 0 0 1 110 32Zm0 12a6 6 0 1 0 0 12 6 6 0 0 0 0-12Z" fill="url(#goldenGradient)"/>
  </g>
  <g font-family="'Montserrat', 'Segoe UI', sans-serif" font-weight="700" text-anchor="middle">
    <text x="100" y="140" font-size="26" fill="#c88c00">GOLDEN</text>
    <text x="100" y="168" font-size="20" fill="#c88c00">LOGISTICS</text>
  </g>
</svg>
